<mxfile host="app.diagrams.net" modified="2024-02-15T05:46:42.903Z" agent="Mozilla/5.0 (Windows NT 10.0; Win64; x64) AppleWebKit/537.36 (KHTML, like Gecko) Chrome/121.0.0.0 Safari/537.36" version="23.1.4" etag="KOdkJDDLS_6veqI8O-fR" type="github">
  <diagram name="Page-1" id="_u5S4KKz07pVPqTGe9rs">
    <mxGraphModel>
      <root>
        <mxCell id="0" />
        <mxCell id="1" parent="0" />
      </root>
    </mxGraphModel>
  </diagram>
</mxfile>
